<svg version="1.1" id="Layer_1" xmlns="http://www.w3.org/2000/svg" xmlns:xlink="http://www.w3.org/1999/xlink" x="0px" y="0px"
	 viewBox="0 0 841.89 595.28" style="enable-background:new 0 0 841.89 595.28;" xml:space="preserve">
<style type="text/css">
	.st0{display:none;fill:none;stroke:#000000;stroke-width:6;stroke-miterlimit:10;}
	.st1{font-family:'Hexagon';}
	.st2{font-size:500px;}
	.st3{letter-spacing:-111;}
	.st4{display:none;}
	.st5{fill:none;stroke:#FFFFFF;stroke-width:1.5;stroke-linecap:round;stroke-linejoin:round;stroke-miterlimit:10;}

	.st5 {
		stroke-dasharray: 2150;
		stroke-dashoffset: 0;
		-webkit-animation: dash 4s linear forwards;
		-o-animation: dash 4s linear forwards;
		-moz-animation: dash 4s linear forwards;				
		animation: dash 4s linear forwards;
	}

	@-webkit-keyframes dash{
		from {
			stroke-dashoffset: 2150;
		} to {
			stroke-dashoffset: 0;
		}
	}

	path{
		opacity: 0;
		animation: fadeIn ease 6s;
		animation-delay: 3s;
		animation-fill-mode: forwards;
	}

	@keyframes fadeIn {
        0% {opacity:0;}
        100% {opacity:1;}
    }

</style>
<text transform="matrix(0.9943 -0.1069 0.1069 0.9943 159.3422 573.0874)" class="st0 st1 st2 st3">C</text>
<g class="st4">
</g>
<g class="st4">
</g>
<g class="st4">
</g>
<text transform="matrix(0.9912 -0.1323 0.1323 0.9912 426.5405 581.7258)" class="st0 st1 st2 st3">M</text>
<polygon class="st5" points="128.75,283.77 333.85,152.1 373.65,184.18 237.29,271.72 317.9,336.68 455.59,247.48 527.95,237.82 
	523.19,202.14 590.22,156.37 753.69,281.34 686.28,327.37 604.72,265.01 610.66,309.51 548.31,317.83 619.43,372.2 552.02,418.22 
	428.41,323.22 288.96,412.89 "/>
<g>
	<path d="M96.68,311.69l0.9,1.2c-2.67,1.53-5.52,2.75-8.55,3.65c-3.03,0.9-6.25,1.35-9.65,1.35c-4.93,0-9.57-0.93-13.9-2.8
		c-4.33-1.87-8.12-4.42-11.35-7.65c-3.23-3.23-5.78-7.02-7.65-11.35c-1.87-4.33-2.8-8.97-2.8-13.9c0-4.93,0.93-9.58,2.8-13.95
		c1.87-4.37,4.42-8.17,7.65-11.4c3.23-3.23,7.02-5.8,11.35-7.7c4.33-1.9,8.97-2.85,13.9-2.85c3.4,0,6.62,0.43,9.65,1.3
		c3.03,0.87,5.92,2.1,8.65,3.7c-0.13,0.2-0.27,0.4-0.4,0.6c-0.13,0.2-0.27,0.4-0.4,0.6c-2.53-1.53-5.28-2.72-8.25-3.55
		c-2.97-0.83-6.05-1.25-9.25-1.25c-4.73,0-9.18,0.92-13.35,2.75c-4.17,1.83-7.8,4.32-10.9,7.45c-3.1,3.13-5.55,6.8-7.35,11
		c-1.8,4.2-2.7,8.67-2.7,13.4c0,4.73,0.9,9.17,2.7,13.3c1.8,4.13,4.23,7.75,7.3,10.85c3.07,3.1,6.67,5.55,10.8,7.35
		c4.13,1.8,8.53,2.7,13.2,2.7c3.2,0,6.28-0.42,9.25-1.25C91.29,314.4,94.08,313.22,96.68,311.69z"/>
	<path d="M116.18,242.09h1.4v42.8l-0.3,4.5c1.33-3.13,3.47-5.67,6.4-7.6c2.93-1.93,6.3-2.9,10.1-2.9c3.53,0,6.32,1.03,8.35,3.1
		c2.03,2.07,3.12,4.77,3.25,8.1v27h-1.4v-27.7c-0.13-2.4-1.02-4.48-2.65-6.25c-1.63-1.77-3.92-2.72-6.85-2.85
		c-2.27,0-4.42,0.37-6.45,1.1c-2.03,0.73-3.83,1.75-5.4,3.05c-1.57,1.3-2.8,2.87-3.7,4.7c-0.9,1.83-1.35,3.82-1.35,5.95v22h-1.4
		V242.09z"/>
	<path d="M182.18,280.29c-2.2,0.07-4.28,0.48-6.25,1.25c-1.97,0.77-3.7,1.8-5.2,3.1s-2.68,2.85-3.55,4.65
		c-0.87,1.8-1.3,3.73-1.3,5.8v22h-1.4v-37.5h1.4v5.3l-0.3,4.5c1.4-3.2,3.57-5.72,6.5-7.55c2.93-1.83,6.3-2.82,10.1-2.95V280.29z"/>
	<path d="M193.18,267.09c0-0.53,0.2-1,0.6-1.4c0.4-0.4,0.87-0.6,1.4-0.6c0.53,0,1,0.2,1.4,0.6c0.4,0.4,0.6,0.87,0.6,1.4
		c0,0.53-0.2,1-0.6,1.4c-0.4,0.4-0.87,0.6-1.4,0.6c-0.53,0-1-0.2-1.4-0.6C193.38,268.09,193.18,267.62,193.18,267.09z
		 M195.88,317.09h-1.4v-37.5h1.4V317.09z"/>
	<path d="M230.88,283.49l-1,1c-1.13-1.33-2.58-2.32-4.35-2.95c-1.77-0.63-3.35-0.95-4.75-0.95c-0.87,0-1.78,0.13-2.75,0.4
		c-0.97,0.27-1.88,0.72-2.75,1.35c-0.87,0.63-1.58,1.47-2.15,2.5c-0.57,1.03-0.85,2.28-0.85,3.75c-0.07,1.93,0.4,3.42,1.4,4.45
		c1,1.03,2.25,1.87,3.75,2.5c1.5,0.63,3.12,1.17,4.85,1.6c1.73,0.43,3.35,1.02,4.85,1.75c1.5,0.73,2.75,1.72,3.75,2.95
		c1,1.23,1.5,2.95,1.5,5.15c0,1.27-0.23,2.55-0.7,3.85c-0.47,1.3-1.18,2.47-2.15,3.5c-0.97,1.03-2.17,1.88-3.6,2.55
		c-1.43,0.67-3.15,1-5.15,1c-1.73,0-3.7-0.35-5.9-1.05c-2.2-0.7-4-1.92-5.4-3.65c0.2-0.13,0.38-0.28,0.55-0.45
		c0.17-0.17,0.35-0.32,0.55-0.45c0.4,0.6,1.03,1.17,1.9,1.7c0.87,0.53,1.8,0.98,2.8,1.35c1,0.37,2.02,0.65,3.05,0.85
		c1.03,0.2,1.98,0.3,2.85,0.3c1,0,2.07-0.2,3.2-0.6c1.13-0.4,2.18-0.98,3.15-1.75c0.97-0.77,1.78-1.72,2.45-2.85
		c0.67-1.13,1-2.47,1-4c0-2.07-0.5-3.67-1.5-4.8c-1-1.13-2.23-2.02-3.7-2.65c-1.47-0.63-3.08-1.18-4.85-1.65
		c-1.77-0.46-3.38-1.02-4.85-1.65c-1.47-0.63-2.7-1.52-3.7-2.65c-1-1.13-1.5-2.73-1.5-4.8c0-1.6,0.28-3,0.85-4.2
		c0.57-1.2,1.33-2.23,2.3-3.1c0.97-0.87,2.05-1.52,3.25-1.95c1.2-0.43,2.43-0.65,3.7-0.65c1.4,0,3.05,0.32,4.95,0.95
		C227.82,280.77,229.48,281.89,230.88,283.49z"/>
	<path d="M252.27,255.19h1.4v25.2h12.7v1.4h-12.7v35.3h-1.4v-35.3h-8.9v-1.4h8.9V255.19z"/>
	<path d="M273.87,267.09c0-0.53,0.2-1,0.6-1.4c0.4-0.4,0.87-0.6,1.4-0.6c0.53,0,1,0.2,1.4,0.6c0.4,0.4,0.6,0.87,0.6,1.4
		c0,0.53-0.2,1-0.6,1.4c-0.4,0.4-0.87,0.6-1.4,0.6c-0.53,0-1-0.2-1.4-0.6C274.07,268.09,273.87,267.62,273.87,267.09z
		 M276.57,317.09h-1.4v-37.5h1.4V317.09z"/>
	<path d="M289.37,298.29c0-2.67,0.5-5.2,1.5-7.6c1-2.4,2.38-4.46,4.15-6.2c1.77-1.73,3.82-3.12,6.15-4.15
		c2.33-1.03,4.87-1.55,7.6-1.55c4.13,0,7.82,1.15,11.05,3.45c3.23,2.3,5.58,5.25,7.05,8.85c0-1.93,0.03-3.85,0.1-5.75
		c0.07-1.9,0.17-3.82,0.3-5.75h1v37.5h-1.4v-5.4c0-1.07,0.02-2.12,0.05-3.15c0.03-1.03,0.05-2.08,0.05-3.15
		c-0.73,1.8-1.7,3.45-2.9,4.95c-1.2,1.5-2.58,2.8-4.15,3.9c-1.57,1.1-3.3,1.95-5.2,2.55c-1.9,0.6-3.88,0.9-5.95,0.9
		c-2.73,0-5.27-0.5-7.6-1.5c-2.33-1-4.38-2.38-6.15-4.15c-1.77-1.77-3.15-3.82-4.15-6.15C289.87,303.55,289.37,301.02,289.37,298.29
		z M290.77,298.29c0,2.53,0.47,4.88,1.4,7.05c0.93,2.17,2.22,4.07,3.85,5.7c1.63,1.63,3.53,2.92,5.7,3.85
		c2.17,0.93,4.52,1.4,7.05,1.4c2.47,0,4.8-0.47,7-1.4c2.2-0.93,4.13-2.22,5.8-3.85c1.67-1.63,2.97-3.53,3.9-5.7
		c0.93-2.17,1.4-4.52,1.4-7.05c0-2.47-0.47-4.8-1.4-7c-0.93-2.2-2.23-4.13-3.9-5.8c-1.67-1.67-3.6-2.97-5.8-3.9
		c-2.2-0.93-4.53-1.4-7-1.4c-2.53,0-4.88,0.47-7.05,1.4c-2.17,0.93-4.07,2.23-5.7,3.9c-1.63,1.67-2.92,3.6-3.85,5.8
		C291.24,293.49,290.77,295.82,290.77,298.29z"/>
	<path d="M345.97,279.59h1.4v5.3l-0.3,4.5c1.33-3.13,3.47-5.67,6.4-7.6c2.93-1.93,6.3-2.9,10.1-2.9c3.53,0,6.32,1.03,8.35,3.1
		c2.03,2.07,3.12,4.77,3.25,8.1v27h-1.4v-27.7c-0.13-2.4-1.02-4.48-2.65-6.25c-1.63-1.77-3.92-2.72-6.85-2.85
		c-2.27,0-4.42,0.37-6.45,1.1c-2.03,0.73-3.83,1.75-5.4,3.05c-1.57,1.3-2.8,2.87-3.7,4.7c-0.9,1.83-1.35,3.82-1.35,5.95v22h-1.4
		V279.59z"/>
	<path d="M423.77,243.89c6.13,7.93,12.23,15.85,18.3,23.75c6.07,7.9,12.17,15.82,18.3,23.75c6.13-7.93,12.23-15.85,18.3-23.75
		c6.07-7.9,12.17-15.82,18.3-23.75v73.2h-1.4v-43v-21.5c0-0.73,0.02-1.48,0.05-2.25c0.03-0.77,0.05-1.52,0.05-2.25
		c-5.87,7.87-11.73,15.6-17.6,23.2c-5.87,7.6-11.77,15.27-17.7,23c-4.6-6.07-9.18-12.05-13.75-17.95s-9.15-11.88-13.75-17.95l-6.9-9
		c-0.13-0.2-0.28-0.42-0.45-0.65c-0.17-0.23-0.32-0.45-0.45-0.65c0,0.73,0.02,1.48,0.05,2.25c0.03,0.77,0.05,1.52,0.05,2.25v64.5
		h-1.4V243.89z"/>
	<path d="M512.37,298.29c0-2.67,0.5-5.2,1.5-7.6c1-2.4,2.38-4.46,4.15-6.2c1.77-1.73,3.82-3.12,6.15-4.15
		c2.33-1.03,4.87-1.55,7.6-1.55c4.13,0,7.82,1.15,11.05,3.45c3.23,2.3,5.58,5.25,7.05,8.85c0-1.93,0.03-3.85,0.1-5.75
		c0.07-1.9,0.17-3.82,0.3-5.75h1v37.5h-1.4v-5.4c0-1.07,0.02-2.12,0.05-3.15c0.03-1.03,0.05-2.08,0.05-3.15
		c-0.73,1.8-1.7,3.45-2.9,4.95c-1.2,1.5-2.58,2.8-4.15,3.9c-1.57,1.1-3.3,1.95-5.2,2.55c-1.9,0.6-3.88,0.9-5.95,0.9
		c-2.73,0-5.27-0.5-7.6-1.5c-2.33-1-4.38-2.38-6.15-4.15c-1.77-1.77-3.15-3.82-4.15-6.15C512.87,303.55,512.37,301.02,512.37,298.29
		z M513.77,298.29c0,2.53,0.47,4.88,1.4,7.05c0.93,2.17,2.22,4.07,3.85,5.7c1.63,1.63,3.53,2.92,5.7,3.85
		c2.17,0.93,4.52,1.4,7.05,1.4c2.47,0,4.8-0.47,7-1.4c2.2-0.93,4.13-2.22,5.8-3.85c1.67-1.63,2.97-3.53,3.9-5.7
		c0.93-2.17,1.4-4.52,1.4-7.05c0-2.47-0.47-4.8-1.4-7c-0.93-2.2-2.23-4.13-3.9-5.8c-1.67-1.67-3.6-2.97-5.8-3.9
		c-2.2-0.93-4.53-1.4-7-1.4c-2.53,0-4.88,0.47-7.05,1.4c-2.17,0.93-4.07,2.23-5.7,3.9c-1.63,1.67-2.92,3.6-3.85,5.8
		C514.23,293.49,513.77,295.82,513.77,298.29z"/>
	<path d="M570.77,255.19h1.4v25.2h12.7v1.4h-12.7v35.3h-1.4v-35.3h-8.9v-1.4h8.9V255.19z"/>
	<path d="M598.57,255.19h1.4v25.2h12.7v1.4h-12.7v35.3h-1.4v-35.3h-8.9v-1.4h8.9V255.19z"/>
	<path d="M624.57,242.09h1.4v42.8l-0.3,4.5c1.33-3.13,3.47-5.67,6.4-7.6c2.93-1.93,6.3-2.9,10.1-2.9c3.53,0,6.32,1.03,8.35,3.1
		c2.03,2.07,3.12,4.77,3.25,8.1v27h-1.4v-27.7c-0.13-2.4-1.02-4.48-2.65-6.25c-1.63-1.77-3.92-2.72-6.85-2.85
		c-2.27,0-4.42,0.37-6.45,1.1c-2.03,0.73-3.83,1.75-5.4,3.05c-1.57,1.3-2.8,2.87-3.7,4.7c-0.9,1.83-1.35,3.82-1.35,5.95v22h-1.4
		V242.09z"/>
	<path d="M701.07,291.19c-5.67,2.33-11.29,4.62-16.85,6.85c-5.57,2.23-11.18,4.52-16.85,6.85c1.33,3.4,3.5,6.15,6.5,8.25
		c3,2.1,6.43,3.15,10.3,3.15c2.4,0,4.67-0.43,6.8-1.3c2.13-0.87,4-2.07,5.6-3.6c0.13,0.2,0.28,0.38,0.45,0.55
		c0.17,0.17,0.32,0.35,0.45,0.55c-1.73,1.6-3.73,2.87-6,3.8c-2.27,0.93-4.7,1.4-7.3,1.4c-2.73,0-5.27-0.5-7.6-1.5
		c-2.33-1-4.38-2.38-6.15-4.15c-1.77-1.77-3.15-3.82-4.15-6.15c-1-2.33-1.5-4.87-1.5-7.6c0-2.67,0.5-5.2,1.5-7.6
		c1-2.4,2.38-4.46,4.15-6.2c1.77-1.73,3.82-3.12,6.15-4.15c2.33-1.03,4.87-1.55,7.6-1.55c3.87,0,7.32,1.15,10.35,3.45
		C697.55,284.54,699.73,287.52,701.07,291.19z M684.17,280.19c-2.53,0-4.88,0.47-7.05,1.4c-2.17,0.93-4.07,2.23-5.7,3.9
		c-1.63,1.67-2.92,3.6-3.85,5.8c-0.93,2.2-1.4,4.53-1.4,7c0,1.93,0.23,3.7,0.7,5.3c5.4-2.2,10.8-4.38,16.2-6.55
		c5.4-2.17,10.8-4.35,16.2-6.55c-1.33-3.07-3.35-5.55-6.05-7.45C690.52,281.14,687.5,280.19,684.17,280.19z"/>
	<path d="M740.87,290.49c-0.93-1.8-1.83-3.62-2.7-5.45c-0.87-1.83-1.77-3.65-2.7-5.45h1.5c3,6.13,6.03,12.27,9.1,18.4
		c3.07,6.13,6.13,12.23,9.2,18.3c3.07-6.13,6.12-12.25,9.15-18.35c3.03-6.1,6.08-12.21,9.15-18.35h1.5
		c-3.33,6.67-6.63,13.3-9.9,19.9c-3.27,6.6-6.57,13.23-9.9,19.9c-2.27-4.6-4.53-9.17-6.8-13.7c-2.27-4.53-4.54-9.1-6.8-13.7
		c-2.27,4.6-4.53,9.17-6.8,13.7c-2.27,4.54-4.53,9.1-6.8,13.7c-3.33-6.67-6.63-13.3-9.9-19.9c-3.27-6.6-6.57-13.23-9.9-19.9h1.5
		c3,6.13,6.03,12.27,9.1,18.4c3.07,6.13,6.13,12.23,9.2,18.3c2.13-4.33,4.27-8.63,6.4-12.9
		C736.6,299.12,738.73,294.82,740.87,290.49z"/>
	<path d="M803.17,283.49l-1,1c-1.13-1.33-2.58-2.32-4.35-2.95c-1.77-0.63-3.35-0.95-4.75-0.95c-0.87,0-1.78,0.13-2.75,0.4
		c-0.97,0.27-1.88,0.72-2.75,1.35c-0.87,0.63-1.58,1.47-2.15,2.5c-0.57,1.03-0.85,2.28-0.85,3.75c-0.07,1.93,0.4,3.42,1.4,4.45
		c1,1.03,2.25,1.87,3.75,2.5c1.5,0.63,3.12,1.17,4.85,1.6c1.73,0.43,3.35,1.02,4.85,1.75c1.5,0.73,2.75,1.72,3.75,2.95
		c1,1.23,1.5,2.95,1.5,5.15c0,1.27-0.23,2.55-0.7,3.85c-0.47,1.3-1.18,2.47-2.15,3.5c-0.97,1.03-2.17,1.88-3.6,2.55
		c-1.43,0.67-3.15,1-5.15,1c-1.73,0-3.7-0.35-5.9-1.05c-2.2-0.7-4-1.92-5.4-3.65c0.2-0.13,0.38-0.28,0.55-0.45
		c0.17-0.17,0.35-0.32,0.55-0.45c0.4,0.6,1.03,1.17,1.9,1.7c0.87,0.53,1.8,0.98,2.8,1.35c1,0.37,2.02,0.65,3.05,0.85
		c1.03,0.2,1.98,0.3,2.85,0.3c1,0,2.07-0.2,3.2-0.6c1.13-0.4,2.18-0.98,3.15-1.75c0.97-0.77,1.78-1.72,2.45-2.85
		c0.67-1.13,1-2.47,1-4c0-2.07-0.5-3.67-1.5-4.8c-1-1.13-2.23-2.02-3.7-2.65c-1.47-0.63-3.08-1.18-4.85-1.65
		c-1.77-0.46-3.38-1.02-4.85-1.65c-1.47-0.63-2.7-1.52-3.7-2.65c-1-1.13-1.5-2.73-1.5-4.8c0-1.6,0.28-3,0.85-4.2
		c0.57-1.2,1.33-2.23,2.3-3.1c0.97-0.87,2.05-1.52,3.25-1.95c1.2-0.43,2.43-0.65,3.7-0.65c1.4,0,3.05,0.32,4.95,0.95
		C800.12,280.77,801.77,281.89,803.17,283.49z"/>
</g>
</svg>
