<?xml version="1.0" encoding="utf-8"?>
<!-- Generator: Adobe Illustrator 25.1.0, SVG Export Plug-In . SVG Version: 6.00 Build 0)  -->
<svg version="1.1" id="Layer_1" xmlns="http://www.w3.org/2000/svg" xmlns:xlink="http://www.w3.org/1999/xlink" x="0px" y="0px"
	 viewBox="0 0 775 282" style="enable-background:new 0 0 775 282;" xml:space="preserve">
<style type="text/css">
	.st0{display:none;fill:none;stroke:#000000;stroke-width:6.0002;stroke-miterlimit:10.0003;enable-background:new    ;}
	.st1{font-family:'Hexagon';}
	.st2{font-size:500px;}
	.st3{letter-spacing:-111;}
	.st4{display:none;fill:none;stroke:#000000;stroke-width:5.9999;stroke-miterlimit:9.9999;enable-background:new    ;}
	
	.st5{fill:none;stroke:#FFFFFF;stroke-width:1.5;stroke-linecap:round;stroke-linejoin:round;stroke-miterlimit:10;stroke-dasharray:2150;}

	.st5 {
		stroke-dasharray: 2150;
		stroke-dashoffset: 0;
		-webkit-animation: dash 4s linear forwards;
		-o-animation: dash 4s linear forwards;
		-moz-animation: dash 4s linear forwards;
		animation: dash 4s linear forwards;
	}

	@-webkit-keyframes dash{
		from {
			stroke-dashoffset: 2150;
		} to {
			stroke-dashoffset: 0;
		}
	}

	path{
		opacity: 0;
		animation: fadeIn ease 6s;
		-webkit-animation: fadeIn ease 6s;
		-moz-animation: fadeIn ease 6s;
		-o-animation: fadeIn ease 6s;
		-ms-animation: fadeIn ease 6s;
		animation-delay: 4s;
		animation-fill-mode: forwards;
	}

	@keyframes fadeIn {
      0%   { opacity: 0; }
	  100% { opacity: 1; }
    }
			
</style>
<text transform="matrix(0.9943 -0.1069 0.1069 0.9943 123.3422 429.8118)" class="st0 st1 st2 st3">C</text>
<text transform="matrix(0.9912 -0.1323 0.1323 0.9912 390.5405 438.4503)" class="st4 st1 st2 st3">M</text>
<polygon class="st5" points="92.8,140.5 297.9,8.8 337.6,40.9 201.3,128.4 281.9,193.4 419.6,104.2 492,94.5 487.2,58.9 554.2,13.1 
	717.7,138.1 650.3,184.1 568.7,121.7 574.7,166.2 512.3,174.6 583.4,228.9 516,274.9 392.4,179.9 253,269.6 "/>
<g>
	<path d="M60.7,168.4l0.9,1.2c-2.7,1.5-5.5,2.8-8.6,3.6c-3,0.9-6.2,1.4-9.7,1.4c-4.9,0-9.6-0.9-13.9-2.8s-8.1-4.4-11.3-7.6
		c-3.2-3.2-5.8-7-7.7-11.4c-1.9-4.3-2.8-9-2.8-13.9s0.9-9.6,2.8-14c1.9-4.4,4.4-8.2,7.7-11.4c3.2-3.2,7-5.8,11.3-7.7s9-2.9,13.9-2.9
		c3.4,0,6.6,0.4,9.7,1.3c3,0.9,5.9,2.1,8.7,3.7c-0.1,0.2-0.3,0.4-0.4,0.6c-0.1,0.2-0.3,0.4-0.4,0.6c-2.5-1.5-5.3-2.7-8.2-3.6
		s-6.1-1.2-9.2-1.2c-4.7,0-9.2,0.9-13.3,2.8s-7.8,4.3-10.9,7.5c-3.1,3.1-5.5,6.8-7.3,11s-2.7,8.7-2.7,13.4c0,4.7,0.9,9.2,2.7,13.3
		c1.8,4.1,4.2,7.8,7.3,10.9s6.7,5.5,10.8,7.4c4.1,1.8,8.5,2.7,13.2,2.7c3.2,0,6.3-0.4,9.2-1.2C55.3,171.1,58.1,169.9,60.7,168.4z"/>
	<path d="M80.2,98.8h1.4v42.8l-0.3,4.5c1.3-3.1,3.5-5.7,6.4-7.6s6.3-2.9,10.1-2.9c3.5,0,6.3,1,8.4,3.1s3.1,4.8,3.2,8.1v27H108v-27.7
		c-0.1-2.4-1-4.5-2.6-6.2c-1.6-1.8-3.9-2.7-6.9-2.9c-2.3,0-4.4,0.4-6.4,1.1s-3.8,1.8-5.4,3s-2.8,2.9-3.7,4.7c-0.9,1.8-1.3,3.8-1.3,6
		v22h-1.4L80.2,98.8L80.2,98.8z"/>
	<path d="M146.2,137c-2.2,0.1-4.3,0.5-6.2,1.2s-3.7,1.8-5.2,3.1s-2.7,2.9-3.6,4.6c-0.9,1.8-1.3,3.7-1.3,5.8v22h-1.4v-37.5h1.4v5.3
		l-0.3,4.5c1.4-3.2,3.6-5.7,6.5-7.5s6.3-2.8,10.1-3V137z"/>
	<path d="M157.2,123.8c0-0.5,0.2-1,0.6-1.4c0.4-0.4,0.9-0.6,1.4-0.6s1,0.2,1.4,0.6s0.6,0.9,0.6,1.4s-0.2,1-0.6,1.4
		c-0.4,0.4-0.9,0.6-1.4,0.6s-1-0.2-1.4-0.6S157.2,124.3,157.2,123.8z M159.9,173.8h-1.4v-37.5h1.4V173.8z"/>
	<path d="M194.9,140.2l-1,1c-1.1-1.3-2.6-2.3-4.4-3s-3.4-1-4.8-1c-0.9,0-1.8,0.1-2.8,0.4s-1.9,0.7-2.8,1.4s-1.6,1.5-2.1,2.5
		c-0.6,1-0.9,2.3-0.9,3.8c-0.1,1.9,0.4,3.4,1.4,4.5s2.2,1.9,3.8,2.5s3.1,1.2,4.9,1.6c1.7,0.4,3.4,1,4.9,1.8s2.8,1.7,3.8,3
		s1.5,3,1.5,5.1c0,1.3-0.2,2.5-0.7,3.9c-0.5,1.3-1.2,2.5-2.1,3.5s-2.2,1.9-3.6,2.5c-1.4,0.7-3.1,1-5.1,1c-1.7,0-3.7-0.4-5.9-1
		c-2.2-0.7-4-1.9-5.4-3.6c0.2-0.1,0.4-0.3,0.6-0.5s0.4-0.3,0.6-0.5c0.4,0.6,1,1.2,1.9,1.7s1.8,1,2.8,1.4s2,0.6,3.1,0.9
		s2,0.3,2.9,0.3c1,0,2.1-0.2,3.2-0.6c1.1-0.4,2.2-1,3.1-1.8s1.8-1.7,2.4-2.9s1-2.5,1-4c0-2.1-0.5-3.7-1.5-4.8c-1-1.1-2.2-2-3.7-2.6
		s-3.1-1.2-4.9-1.6c-1.8-0.5-3.4-1-4.9-1.6s-2.7-1.5-3.7-2.6s-1.5-2.7-1.5-4.8c0-1.6,0.3-3,0.9-4.2s1.3-2.2,2.3-3.1s2.1-1.5,3.2-2
		c1.2-0.4,2.4-0.6,3.7-0.6c1.4,0,3.1,0.3,4.9,1C191.8,137.5,193.5,138.6,194.9,140.2z"/>
	<path d="M216.3,111.9h1.4v25.2h12.7v1.4h-12.7v35.3h-1.4v-35.3h-8.9v-1.4h8.9V111.9z"/>
	<path d="M237.9,123.8c0-0.5,0.2-1,0.6-1.4s0.9-0.6,1.4-0.6s1,0.2,1.4,0.6s0.6,0.9,0.6,1.4s-0.2,1-0.6,1.4s-0.9,0.6-1.4,0.6
		s-1-0.2-1.4-0.6S237.9,124.3,237.9,123.8z M240.6,173.8h-1.4v-37.5h1.4V173.8z"/>
	<path d="M253.4,155c0-2.7,0.5-5.2,1.5-7.6s2.4-4.5,4.1-6.2c1.8-1.7,3.8-3.1,6.1-4.1s4.9-1.5,7.6-1.5c4.1,0,7.8,1.1,11,3.5
		c3.2,2.3,5.6,5.2,7,8.9c0-1.9,0-3.9,0.1-5.8s0.2-3.8,0.3-5.8h1v37.5h-1.4v-5.4c0-1.1,0-2.1,0-3.1s0-2.1,0-3.1
		c-0.7,1.8-1.7,3.5-2.9,5c-1.2,1.5-2.6,2.8-4.1,3.9s-3.3,2-5.2,2.5c-1.9,0.6-3.9,0.9-6,0.9c-2.7,0-5.3-0.5-7.6-1.5
		c-2.3-1-4.4-2.4-6.1-4.1s-3.1-3.8-4.1-6.1C253.9,160.3,253.4,157.7,253.4,155z M254.8,155c0,2.5,0.5,4.9,1.4,7
		c0.9,2.2,2.2,4.1,3.9,5.7s3.5,2.9,5.7,3.9s4.5,1.4,7,1.4c2.5,0,4.8-0.5,7-1.4s4.1-2.2,5.8-3.9c1.7-1.6,3-3.5,3.9-5.7s1.4-4.5,1.4-7
		c0-2.5-0.5-4.8-1.4-7s-2.2-4.1-3.9-5.8c-1.7-1.7-3.6-3-5.8-3.9c-2.2-0.9-4.5-1.4-7-1.4c-2.5,0-4.9,0.5-7,1.4
		c-2.2,0.9-4.1,2.2-5.7,3.9c-1.6,1.7-2.9,3.6-3.9,5.8S254.8,152.5,254.8,155z"/>
	<path d="M310,136.3h1.4v5.3l-0.3,4.5c1.3-3.1,3.5-5.7,6.4-7.6s6.3-2.9,10.1-2.9c3.5,0,6.3,1,8.4,3.1s3.1,4.8,3.2,8.1v27h-1.4v-27.7
		c-0.1-2.4-1-4.5-2.6-6.2s-3.9-2.7-6.9-2.9c-2.3,0-4.4,0.4-6.5,1.1s-3.8,1.8-5.4,3s-2.8,2.9-3.7,4.7c-0.9,1.8-1.4,3.8-1.4,6v22H310
		V136.3z"/>
	<path d="M387.8,100.6c6.1,7.9,12.2,15.8,18.3,23.8c6.1,7.9,12.2,15.8,18.3,23.8c6.1-7.9,12.2-15.9,18.3-23.8
		c6.1-7.9,12.2-15.8,18.3-23.8v73.2h-1.4v-43v-21.5c0-0.7,0-1.5,0-2.2s0-1.5,0-2.2c-5.9,7.9-11.7,15.6-17.6,23.2s-11.8,15.3-17.7,23
		c-4.6-6.1-9.2-12-13.8-18s-9.1-11.9-13.8-18l-6.9-9c-0.1-0.2-0.3-0.4-0.5-0.6s-0.3-0.4-0.5-0.6c0,0.7,0,1.5,0,2.2s0,1.5,0,2.2v64.5
		h-1.4L387.8,100.6L387.8,100.6z"/>
	<path d="M476.4,155c0-2.7,0.5-5.2,1.5-7.6s2.4-4.5,4.2-6.2c1.8-1.7,3.8-3.1,6.2-4.1s4.9-1.5,7.6-1.5c4.1,0,7.8,1.1,11,3.5
		c3.2,2.3,5.6,5.2,7,8.9c0-1.9,0-3.9,0.1-5.8c0.1-1.9,0.2-3.8,0.3-5.8h1v37.5h-1.4v-5.4c0-1.1,0-2.1,0-3.1c0-1,0-2.1,0-3.1
		c-0.7,1.8-1.7,3.5-2.9,5s-2.6,2.8-4.2,3.9s-3.3,2-5.2,2.5c-1.9,0.6-3.9,0.9-6,0.9c-2.7,0-5.3-0.5-7.6-1.5c-2.3-1-4.4-2.4-6.2-4.1
		s-3.2-3.8-4.2-6.1C476.9,160.3,476.4,157.7,476.4,155z M477.8,155c0,2.5,0.5,4.9,1.4,7c0.9,2.2,2.2,4.1,3.8,5.7s3.5,2.9,5.7,3.9
		s4.5,1.4,7,1.4c2.5,0,4.8-0.5,7-1.4s4.1-2.2,5.8-3.9s3-3.5,3.9-5.7c0.9-2.2,1.4-4.5,1.4-7c0-2.5-0.5-4.8-1.4-7
		c-0.9-2.2-2.2-4.1-3.9-5.8c-1.7-1.7-3.6-3-5.8-3.9s-4.5-1.4-7-1.4c-2.5,0-4.9,0.5-7,1.4s-4.1,2.2-5.7,3.9c-1.6,1.7-2.9,3.6-3.8,5.8
		C478.2,150.2,477.8,152.5,477.8,155z"/>
	<path d="M534.8,111.9h1.4v25.2h12.7v1.4h-12.7v35.3h-1.4v-35.3h-8.9v-1.4h8.9V111.9z"/>
	<path d="M562.6,111.9h1.4v25.2h12.7v1.4H564v35.3h-1.4v-35.3h-8.9v-1.4h8.9V111.9z"/>
	<path d="M588.6,98.8h1.4v42.8l-0.3,4.5c1.3-3.1,3.5-5.7,6.4-7.6c2.9-1.9,6.3-2.9,10.1-2.9c3.5,0,6.3,1,8.3,3.1
		c2,2.1,3.1,4.8,3.2,8.1v27h-1.4v-27.7c-0.1-2.4-1-4.5-2.7-6.2s-3.9-2.7-6.8-2.9c-2.3,0-4.4,0.4-6.5,1.1s-3.8,1.8-5.4,3
		s-2.8,2.9-3.7,4.7c-0.9,1.8-1.3,3.8-1.3,6v22h-1.4L588.6,98.8L588.6,98.8z"/>
	<path d="M665.1,147.9c-5.7,2.3-11.3,4.6-16.8,6.9c-5.6,2.2-11.2,4.5-16.8,6.9c1.3,3.4,3.5,6.1,6.5,8.2s6.4,3.1,10.3,3.1
		c2.4,0,4.7-0.4,6.8-1.3s4-2.1,5.6-3.6c0.1,0.2,0.3,0.4,0.5,0.5c0.2,0.2,0.3,0.4,0.5,0.5c-1.7,1.6-3.7,2.9-6,3.8s-4.7,1.4-7.3,1.4
		c-2.7,0-5.3-0.5-7.6-1.5c-2.3-1-4.4-2.4-6.2-4.1s-3.2-3.8-4.2-6.1s-1.5-4.9-1.5-7.6c0-2.7,0.5-5.2,1.5-7.6s2.4-4.5,4.2-6.2
		c1.8-1.7,3.8-3.1,6.2-4.1s4.9-1.5,7.6-1.5c3.9,0,7.3,1.1,10.3,3.5S663.7,144.2,665.1,147.9z M648.2,136.9c-2.5,0-4.9,0.5-7,1.4
		s-4.1,2.2-5.7,3.9c-1.6,1.7-2.9,3.6-3.8,5.8c-0.9,2.2-1.4,4.5-1.4,7c0,1.9,0.2,3.7,0.7,5.3c5.4-2.2,10.8-4.4,16.2-6.5
		c5.4-2.2,10.8-4.4,16.2-6.5c-1.3-3.1-3.3-5.5-6-7.5C654.5,137.9,651.5,136.9,648.2,136.9z"/>
	<path d="M704.9,147.2c-0.9-1.8-1.8-3.6-2.7-5.5c-0.9-1.8-1.8-3.6-2.7-5.5h1.5c3,6.1,6,12.3,9.1,18.4c3.1,6.1,6.1,12.2,9.2,18.3
		c3.1-6.1,6.1-12.2,9.2-18.4s6.1-12.2,9.2-18.4h1.5c-3.3,6.7-6.6,13.3-9.9,19.9s-6.6,13.2-9.9,19.9c-2.3-4.6-4.5-9.2-6.8-13.7
		c-2.3-4.5-4.5-9.1-6.8-13.7c-2.3,4.6-4.5,9.2-6.8,13.7c-2.3,4.5-4.5,9.1-6.8,13.7c-3.3-6.7-6.6-13.3-9.9-19.9s-6.6-13.2-9.9-19.9
		h1.5c3,6.1,6,12.3,9.1,18.4c3.1,6.1,6.1,12.2,9.2,18.3c2.1-4.3,4.3-8.6,6.4-12.9C700.6,155.8,702.7,151.5,704.9,147.2z"/>
	<path d="M767.2,140.2l-1,1c-1.1-1.3-2.6-2.3-4.3-3c-1.8-0.6-3.3-1-4.8-1c-0.9,0-1.8,0.1-2.8,0.4s-1.9,0.7-2.8,1.4s-1.6,1.5-2.2,2.5
		s-0.8,2.3-0.8,3.8c-0.1,1.9,0.4,3.4,1.4,4.5s2.2,1.9,3.8,2.5s3.1,1.2,4.8,1.6s3.3,1,4.8,1.8s2.8,1.7,3.8,3s1.5,3,1.5,5.1
		c0,1.3-0.2,2.5-0.7,3.9c-0.5,1.3-1.2,2.5-2.2,3.5c-1,1-2.2,1.9-3.6,2.5c-1.4,0.7-3.2,1-5.2,1c-1.7,0-3.7-0.4-5.9-1
		c-2.2-0.7-4-1.9-5.4-3.6c0.2-0.1,0.4-0.3,0.5-0.5s0.3-0.3,0.5-0.5c0.4,0.6,1,1.2,1.9,1.7s1.8,1,2.8,1.4s2,0.6,3,0.9
		c1,0.2,2,0.3,2.8,0.3c1,0,2.1-0.2,3.2-0.6s2.2-1,3.2-1.8c1-0.8,1.8-1.7,2.5-2.9s1-2.5,1-4c0-2.1-0.5-3.7-1.5-4.8
		c-1-1.1-2.2-2-3.7-2.6c-1.5-0.6-3.1-1.2-4.8-1.6c-1.8-0.5-3.4-1-4.8-1.6s-2.7-1.5-3.7-2.6s-1.5-2.7-1.5-4.8c0-1.6,0.3-3,0.8-4.2
		c0.6-1.2,1.3-2.2,2.3-3.1s2-1.5,3.2-2c1.2-0.4,2.4-0.6,3.7-0.6c1.4,0,3,0.3,5,1C764.1,137.5,765.8,138.6,767.2,140.2z"/>
</g>
</svg>
